<?xml version="1.0" standalone="no"?>
<svg viewBox="0 0 200 200" xmlns="http://www.w3.org/2000/svg">
  <path fill="#C74A42" d="M34.4,-60.7C46.6,-52.6,59.8,-47.4,63.2,-37.7C66.7,-28.1,60.3,-14.1,58.8,-0.9C57.3,12.3,60.6,24.6,57,33.9C53.3,43.2,42.8,49.6,32.2,51.9C21.5,54.3,10.8,52.6,0.5,51.7C-9.7,50.8,-19.5,50.7,-33,50C-46.5,49.3,-63.7,48,-68.1,39.6C-72.6,31.2,-64.2,15.6,-63.1,0.7C-62,-14.3,-68.1,-28.6,-63.1,-36C-58.1,-43.5,-42,-44.2,-29.6,-52.2C-17.3,-60.2,-8.6,-75.6,1.2,-77.8C11.1,-79.9,22.2,-68.9,34.4,-60.7Z" transform="translate(100 100)" />
</svg>
